<svg xmlns="http://www.w3.org/2000/svg" xmlns:xlink="http://www.w3.org/1999/xlink" zoomAndPan="magnify" viewBox="0 0 375 374.999991" preserveAspectRatio="xMidYMid meet" version="1.0"><defs><g/><clipPath id="4a1f0664b9"><path d="M 209 93.734375 L 276.464844 93.734375 L 276.464844 239.234375 L 209 239.234375 Z M 209 93.734375 " clip-rule="nonzero"/></clipPath><clipPath id="8d6b2dadce"><path d="M 165 91.421875 L 170 91.421875 L 170 96 L 165 96 Z M 165 91.421875 " clip-rule="nonzero"/></clipPath><clipPath id="0f59e8ede8"><path d="M 141 237 L 146 237 L 146 241.421875 L 141 241.421875 Z M 141 237 " clip-rule="nonzero"/></clipPath></defs><g clip-path="url(#4a1f0664b9)"><path fill="#361163" d="M 217.605469 94.324219 C 218.382812 93.746094 219.644531 94.007812 220.523438 94.058594 C 221.765625 94.125 222.992188 94.132812 224.132812 94.683594 C 224.636719 94.925781 224.921875 95.277344 225.375 95.558594 C 225.933594 95.90625 226.066406 95.886719 226.796875 95.949219 C 228.699219 96.113281 230.671875 96.914062 232.3125 97.863281 C 233.089844 98.3125 233.917969 99.691406 234.765625 99.84375 C 235.683594 100.011719 237.136719 98.710938 238 98.382812 C 243.109375 96.417969 247.796875 97.957031 250.824219 102.507812 C 251.882812 104.09375 252.558594 105.925781 252.527344 107.847656 C 252.507812 108.863281 251.847656 110.070312 251.925781 111.023438 C 252.0625 112.636719 253.925781 112.148438 255.035156 112.316406 C 256.195312 112.496094 257.140625 112.9375 257.917969 113.871094 C 259.3125 115.554688 259.546875 118.417969 259.699219 120.527344 C 259.855469 122.671875 260.089844 124.859375 261.753906 126.28125 C 263.5625 127.828125 265.34375 129.082031 266.582031 131.148438 C 268.53125 134.394531 268.65625 137.324219 268.503906 141.011719 C 268.4375 142.695312 268.007812 144.269531 267.613281 145.894531 C 267.296875 147.214844 267.421875 147.023438 268.433594 147.820312 C 269.4375 148.609375 269.988281 149.417969 270.484375 150.570312 C 271.023438 151.8125 271.363281 152.746094 271.351562 154.085938 C 271.347656 154.773438 271.320312 155.460938 271.28125 156.144531 C 271.257812 156.597656 271.226562 157.046875 271.191406 157.5 C 271.476562 157.660156 271.757812 157.824219 272.039062 157.992188 C 272.886719 159.089844 273.691406 160.027344 274.28125 161.277344 C 274.953125 162.683594 275.609375 164.582031 275.84375 166.171875 C 276.292969 169.242188 275.121094 170.660156 272.613281 172.046875 C 274.738281 174.628906 276.46875 178.082031 276.042969 181.539062 C 275.796875 183.546875 275.164062 185.203125 273.839844 186.726562 C 273.167969 187.5 272.476562 188.222656 271.730469 188.917969 C 271.171875 189.4375 269.648438 190.527344 269.378906 191.28125 C 269.097656 192.070312 269.765625 193.476562 269.640625 194.402344 C 269.542969 195.15625 269.03125 195.886719 268.976562 196.605469 C 268.925781 197.296875 269.511719 198.335938 269.640625 199.285156 C 269.773438 200.257812 270.042969 201.179688 270.152344 202.148438 C 270.519531 205.402344 269.632812 207.785156 267.851562 210.449219 C 267.039062 211.660156 266.371094 212.9375 265.433594 214.054688 C 264.039062 215.710938 262.878906 216.503906 260.871094 217.214844 C 260.351562 217.394531 259.519531 217.53125 259.050781 217.78125 C 257.710938 218.492188 258.089844 221.433594 257.386719 222.902344 C 256.628906 224.476562 256.152344 226.199219 254.9375 227.519531 C 254.011719 228.519531 252.824219 228.863281 251.65625 229.492188 C 249.214844 230.804688 246.652344 231.101562 243.902344 230.765625 C 242.300781 230.570312 239.535156 229.390625 238.261719 230.117188 C 237.726562 230.421875 237.132812 231.316406 236.65625 231.753906 C 235.96875 232.382812 235.242188 232.992188 234.703125 233.746094 C 233.855469 234.941406 233.195312 235.632812 231.78125 236.378906 C 230.046875 237.296875 227.742188 238.460938 225.804688 238.800781 C 223.871094 239.136719 221.394531 239.222656 219.492188 238.734375 C 219.039062 238.617188 218.632812 238.460938 218.214844 238.238281 C 217.542969 237.878906 217.0625 236.980469 216.480469 236.695312 C 216.410156 236.660156 215.738281 236.890625 215.519531 236.820312 C 214.96875 236.640625 214.496094 236.382812 213.992188 236.097656 C 213.09375 235.597656 212.253906 235.011719 211.621094 234.175781 C 210.175781 232.269531 209.960938 229.996094 210.25 227.675781 C 210.296875 227.3125 210.398438 226.960938 210.449219 226.601562 C 210.503906 226.203125 210.402344 225.964844 210.550781 225.542969 C 210.613281 225.375 211.136719 225.023438 211.164062 224.878906 C 211.351562 223.855469 210.828125 222.246094 210.671875 221.234375 C 210.292969 218.804688 209.191406 216.566406 209.121094 214.089844 C 209.089844 212.949219 209.097656 211.570312 209.523438 210.492188 C 209.980469 209.34375 211.433594 208.074219 211.320312 206.8125 C 211.21875 205.664062 210.191406 204.359375 209.792969 203.238281 C 208.984375 200.980469 209.34375 198.46875 209.386719 196.121094 C 209.425781 193.988281 209.726562 192.667969 210.207031 190.675781 C 210.550781 189.246094 210.914062 188.023438 211.414062 186.652344 C 211.832031 185.5 211.789062 185.433594 211.070312 184.433594 C 210.726562 183.964844 210.386719 183.417969 210.246094 182.84375 C 209.609375 180.246094 211.222656 176.480469 213.15625 174.714844 C 212.296875 173.785156 211.601562 172.988281 211.027344 171.796875 C 210.113281 169.914062 210.527344 167.519531 210.535156 165.429688 C 210.550781 162.632812 210.445312 159.78125 210.691406 156.988281 C 210.75 156.316406 210.898438 155.742188 211.0625 155.097656 C 211.289062 154.207031 211.535156 153.382812 211.910156 152.535156 C 212.359375 151.5 212.75 150.457031 213.1875 149.417969 C 213.59375 148.460938 214.203125 147.476562 214.554688 146.515625 C 212.066406 145.910156 210.578125 141.503906 210.511719 139.234375 C 210.4375 136.882812 210.359375 134.242188 210.679688 131.90625 C 210.75 131.378906 210.929688 130.867188 211.078125 130.355469 C 211.300781 129.582031 211.460938 128.8125 211.628906 128.023438 C 211.835938 127.042969 211.96875 127.046875 211.445312 126.464844 C 211.046875 126.027344 210.730469 126.226562 210.511719 125.5625 C 210.347656 125.082031 210.558594 123.980469 210.707031 123.484375 C 211.042969 122.371094 211.828125 121.753906 212.734375 121.082031 C 211.6875 120.789062 210.164062 118.695312 209.671875 117.769531 C 208.949219 116.410156 209.132812 114.6875 209.746094 113.324219 C 210.21875 112.28125 210.882812 111.3125 211.453125 110.324219 C 211.742188 109.820312 212.300781 109.171875 212.476562 108.632812 C 212.734375 107.828125 212.183594 107.195312 211.832031 106.304688 C 211.050781 104.320312 211.089844 101.125 211.707031 99.132812 C 211.976562 98.265625 212.605469 97.304688 213.304688 96.734375 C 214.585938 95.691406 216.378906 95.300781 217.605469 94.324219 M 219.398438 95.296875 C 216.921875 96.164062 214.460938 96.738281 213.425781 99.445312 C 212.511719 101.84375 212.546875 104.960938 213.730469 107.273438 C 214.757812 106.351562 215.847656 105.542969 216.96875 104.75 C 217.433594 104.425781 218.714844 103.085938 219.257812 103.074219 C 220.480469 103.054688 219.605469 104.605469 218.984375 105.113281 C 218.183594 105.765625 217.101562 106.144531 216.253906 106.757812 C 214.738281 107.855469 213.800781 109.125 212.828125 110.667969 C 211.273438 113.140625 210.066406 114.984375 211.84375 117.753906 C 212.957031 119.484375 213.703125 120.5 215.773438 119.449219 C 217.003906 118.824219 218.28125 118.316406 219.632812 117.976562 C 221.15625 117.597656 222.683594 117.765625 224.21875 118.03125 C 225.582031 118.265625 226.851562 118.640625 228.148438 119.0625 C 228.820312 119.28125 231.277344 119.578125 231.203125 120.65625 C 228.757812 121.054688 226.382812 119.40625 224.023438 119.015625 C 222.265625 118.726562 220.503906 118.910156 218.8125 119.433594 C 217.152344 119.949219 212.855469 121.367188 212.644531 123.421875 C 212.554688 124.285156 213.257812 125.390625 213.28125 126.332031 C 213.300781 127.191406 213.25 128.332031 212.988281 129.160156 C 212.539062 130.558594 211.96875 131.675781 211.851562 133.195312 C 211.558594 137.019531 211.175781 143.003906 215.308594 145.136719 C 215.601562 144.484375 216.789062 143.324219 217.601562 143.558594 C 217.523438 145.164062 215.671875 147.058594 214.984375 148.46875 C 214.128906 150.222656 213.394531 152.085938 212.683594 153.902344 C 211.171875 157.78125 211.671875 162.859375 211.675781 166.957031 C 211.675781 172.742188 215.914062 175.554688 220.878906 177.433594 C 221.839844 177.796875 222.691406 178.109375 223.511719 178.699219 C 224.144531 179.15625 224.824219 179.859375 223.65625 179.972656 C 223.140625 180.023438 222.472656 179.402344 222.027344 179.21875 C 221.429688 178.976562 220.847656 178.859375 220.230469 178.652344 C 218.988281 178.242188 217.847656 177.761719 216.695312 177.125 C 216.195312 176.84375 215.664062 176.472656 215.125 176.269531 C 214.347656 175.980469 214.699219 175.824219 213.957031 176.238281 C 212.746094 176.914062 211.90625 179.257812 211.796875 180.546875 C 211.699219 181.730469 212.226562 182.78125 212.582031 183.894531 C 213.273438 183.160156 213.421875 182.148438 214.515625 181.894531 C 214.832031 181.824219 216.078125 181.769531 216.082031 182.339844 C 216.082031 182.742188 214.253906 184.179688 213.957031 184.625 C 213.472656 185.335938 213.199219 186.089844 212.828125 186.859375 C 211.800781 189.003906 211.015625 191.703125 210.675781 194.097656 C 210.09375 198.21875 210.699219 201.910156 212.261719 205.710938 C 212.886719 207.230469 213.554688 208.8125 214.015625 210.382812 C 214.238281 211.148438 214.371094 212.273438 213.242188 211.757812 C 212.667969 211.496094 212.183594 210.0625 212.058594 209.523438 C 210.804688 210.683594 210.15625 211.96875 210.511719 213.789062 C 211.007812 216.347656 214.226562 217.988281 216.566406 218.199219 C 219.015625 218.421875 222.199219 218.105469 224.246094 216.59375 C 225.300781 215.8125 226.191406 214.585938 226.617188 213.34375 C 227.054688 212.070312 226.476562 210.625 227.949219 210.269531 C 229.472656 209.898438 231.433594 210.554688 232.65625 209.261719 C 234.007812 207.828125 233.800781 204.777344 233.199219 203.085938 C 232.984375 202.484375 231.742188 201.230469 231.886719 200.601562 C 232.15625 199.425781 233.078125 200.449219 233.511719 200.863281 C 234.902344 202.195312 235.957031 203.304688 237.714844 204.175781 C 241.609375 206.101562 245.925781 205.859375 250.042969 204.65625 C 251.925781 204.101562 253.867188 203.300781 255.066406 201.675781 C 256.878906 199.222656 258.375 195.652344 258.914062 192.65625 C 259.105469 191.578125 259.070312 190.554688 258.90625 189.476562 C 258.839844 189.066406 258.167969 187.714844 258.203125 187.527344 C 258.339844 186.761719 259.9375 186.574219 260.515625 186.378906 C 262.046875 185.863281 263.515625 185.15625 264.546875 183.863281 C 265.121094 183.140625 265.515625 182.296875 265.769531 181.414062 C 266.183594 179.960938 264.867188 179.332031 264.542969 177.890625 C 264.320312 176.90625 264.171875 174.84375 265.609375 175.722656 C 266.769531 176.433594 266.628906 178.074219 268.082031 178.597656 C 269.285156 179.03125 270.902344 177.410156 271.578125 177.789062 C 272.042969 178.050781 272.101562 179.207031 271.96875 179.609375 C 271.601562 180.695312 270.363281 180.773438 269.386719 180.835938 C 268.597656 180.882812 267.609375 180.707031 267.21875 181.214844 C 266.90625 181.621094 266.882812 182.839844 266.628906 183.394531 C 265.511719 185.855469 262.632812 187.921875 259.945312 188.015625 C 261.472656 191.761719 259.617188 195.558594 258.0625 198.949219 C 256.867188 201.554688 255.433594 204.140625 252.726562 205.332031 C 250.019531 206.519531 246.808594 206.753906 243.875 206.828125 C 240.210938 206.917969 237.992188 206.152344 234.9375 204.058594 C 235.023438 206.292969 235.203125 208.285156 233.964844 210.296875 C 232.582031 212.542969 230.972656 212.484375 228.605469 211.984375 C 228.398438 215.550781 225.1875 218.851562 221.695312 219.375 C 217.75 219.960938 215.003906 219.472656 211.382812 218.191406 C 211.570312 220.160156 212.050781 220.472656 213.449219 221.742188 C 214.75 222.925781 216.25 223.464844 217.675781 224.398438 C 218.875 225.179688 218.972656 226.214844 217.320312 225.679688 C 215.441406 225.070312 214.085938 223.933594 212.429688 222.84375 C 212.304688 225.191406 211.300781 227.402344 211.601562 229.769531 C 211.957031 232.617188 213.726562 233.914062 215.890625 235.503906 C 215.851562 234.664062 215.867188 233.636719 216.558594 233.03125 C 217.035156 233.601562 217.140625 234.355469 217.515625 234.976562 C 218.113281 235.96875 219.023438 236.496094 220.09375 236.875 C 223.148438 237.960938 226.125 237.203125 229.042969 236.113281 C 232.640625 234.769531 234.355469 231.390625 237.601562 229.507812 C 236.441406 228.832031 235.449219 228.371094 234.371094 227.5 C 233.179688 226.542969 231.59375 225.960938 230.542969 224.890625 C 229.429688 226.574219 226.96875 228.160156 224.921875 228.222656 C 222.988281 228.277344 223.6875 227.359375 224.941406 226.78125 C 226.425781 226.089844 227.949219 225.519531 229.066406 224.261719 C 229.683594 223.566406 230.117188 222.746094 230.363281 221.851562 C 230.695312 220.660156 230.566406 218.351562 231.664062 217.597656 C 232.667969 218.867188 232.0625 220.445312 231.675781 221.785156 C 231.429688 222.636719 231.40625 222.832031 231.839844 223.492188 C 231.949219 223.652344 232.980469 224.683594 233.175781 224.707031 C 233.664062 224.773438 235.605469 223.363281 236.066406 222.945312 C 236.539062 222.515625 237.015625 221.859375 237.222656 221.246094 C 238.003906 218.925781 237.0625 217.222656 235.910156 215.308594 C 235.546875 214.707031 234.726562 213.335938 236.101562 213.347656 C 236.816406 213.355469 237.792969 214.613281 238.347656 214.984375 C 239.144531 215.523438 239.980469 215.808594 240.917969 216.007812 C 241.421875 216.117188 241.960938 216.238281 242.476562 216.242188 C 242.808594 216.242188 244.199219 215.789062 244.429688 215.96875 C 244.90625 216.347656 243.746094 217.523438 243.332031 217.722656 C 242.769531 217.988281 241.867188 217.910156 241.257812 217.867188 C 240.941406 217.890625 240.625 217.875 240.308594 217.820312 C 239.738281 217.417969 239.460938 217.585938 239.472656 218.332031 C 238.597656 219.753906 238.867188 221.609375 237.917969 223.066406 C 237.046875 224.402344 236.003906 225.472656 234.339844 225.742188 C 238.539062 229.652344 245.644531 230.453125 250.800781 228.328125 C 252.859375 227.476562 254.035156 226.289062 255.109375 224.34375 C 256.28125 222.222656 256.421875 220.160156 257.097656 217.878906 C 255.03125 217.890625 253.546875 217.808594 251.539062 217.304688 C 251.714844 219.824219 250.917969 221.835938 248.414062 222.820312 C 247.558594 223.15625 241.625 223.914062 242.296875 221.988281 C 242.558594 221.242188 244.761719 221.492188 245.28125 221.488281 C 246.664062 221.472656 247.859375 221.320312 248.933594 220.34375 C 249.835938 219.527344 250.769531 217.917969 249.980469 216.871094 C 249.3125 215.988281 247.78125 215.140625 246.925781 214.363281 C 246.417969 213.898438 245.222656 212.933594 245.046875 212.1875 C 244.515625 209.957031 246.953125 212.402344 247.394531 212.847656 C 248.914062 214.394531 250.949219 215.863281 253.113281 216.265625 C 257.808594 217.144531 262.589844 216.03125 265.398438 211.941406 C 268.277344 207.742188 269.824219 203.621094 267.773438 198.722656 C 267.003906 199.21875 260.578125 200.859375 260.617188 198.8125 C 261.894531 198.347656 263.332031 198.769531 264.644531 198.351562 C 266.199219 197.855469 267.394531 196.492188 267.792969 194.914062 C 268.15625 193.464844 267.609375 192.539062 267.488281 191.152344 C 267.371094 189.800781 267.640625 189.851562 268.847656 189.375 C 272.878906 187.78125 275.339844 182.730469 274.40625 178.574219 C 274.183594 177.589844 273.859375 176.441406 273.429688 175.542969 C 273.167969 175 272.792969 174.503906 272.460938 174.007812 C 271.890625 173.152344 271.984375 172.972656 271.183594 173.003906 C 270.003906 173.054688 268.816406 173.949219 267.636719 174.089844 C 266.46875 174.226562 265.890625 173.859375 264.984375 174.648438 C 261.40625 177.746094 260.285156 182.828125 254.882812 183.488281 C 254.046875 183.589844 250.632812 183.664062 252.898438 182.433594 C 254.832031 181.386719 257.03125 181.660156 258.867188 180.15625 C 259.960938 179.261719 260.636719 178.050781 261.40625 176.894531 C 261.828125 176.265625 262.367188 175.613281 262.65625 174.910156 C 262.886719 174.347656 262.734375 173.367188 263.140625 172.953125 C 263.910156 172.175781 265.828125 173.035156 266.75 172.960938 C 268.113281 172.847656 269.691406 171.992188 270.890625 171.328125 C 272.390625 170.492188 274.140625 168.984375 274.421875 167.207031 C 274.769531 164.96875 273.082031 161.042969 271.292969 159.695312 C 270.304688 158.949219 270.34375 159.449219 269.65625 160.328125 C 269.277344 160.808594 268.886719 161.335938 268.40625 161.722656 C 268.15625 161.925781 267.226562 162.195312 267.105469 162.351562 C 266.828125 162.730469 266.71875 164.554688 266.476562 165.152344 C 266.183594 165.875 265.839844 166.292969 265.425781 166.90625 C 264.820312 167.792969 264.175781 168.949219 263.285156 169.589844 C 262.574219 170.097656 260.828125 170.488281 261.148438 169.257812 C 261.386719 168.34375 263.210938 167.53125 263.832031 166.765625 C 265.589844 164.609375 266.03125 161.648438 265.234375 159.050781 C 264.761719 157.503906 264.070312 155.890625 263.011719 154.652344 C 262.574219 154.140625 259.808594 152.054688 262.390625 152.457031 C 263.550781 152.636719 264.773438 154.640625 265.289062 155.546875 C 266.15625 157.0625 266.609375 158.742188 267.039062 160.421875 C 269.226562 159.300781 270.085938 156.351562 269.925781 154.046875 C 269.820312 152.5625 269.28125 150.816406 268.316406 149.683594 C 268.105469 149.433594 266.980469 148.238281 266.566406 148.292969 C 266.136719 148.347656 265.660156 149.332031 265.3125 149.636719 C 264.953125 149.949219 264.164062 150.601562 263.683594 150.367188 C 262.761719 149.921875 263.882812 149.257812 264.164062 148.96875 C 265.285156 147.828125 265.800781 146.417969 266.339844 144.933594 C 267.304688 142.28125 267.527344 139.300781 267.132812 136.515625 C 266.707031 133.5 265.273438 131.019531 263.007812 129.082031 C 261.890625 128.121094 260.570312 126.171875 259.160156 126.632812 C 258.339844 126.898438 256.261719 128.488281 256.253906 126.898438 C 256.253906 126.722656 256.785156 125.460938 256.914062 125.167969 C 257.238281 124.4375 257.253906 124.820312 257.882812 124.367188 C 258.75 123.738281 258.488281 123.371094 258.429688 122.121094 C 258.382812 121.152344 258.46875 120.171875 258.378906 119.207031 C 258.085938 116.152344 256.792969 114.089844 253.785156 113.476562 C 253.398438 113.394531 251.714844 112.960938 251.464844 113.277344 C 251.351562 113.417969 252.0625 115.042969 252.152344 115.457031 C 252.296875 116.128906 252.332031 116.726562 252.332031 117.433594 C 252.332031 118.007812 252.660156 119.664062 251.984375 119.902344 C 251.1875 120.1875 251.214844 119.273438 251.167969 118.789062 C 251.011719 117.148438 250.917969 115.902344 250.28125 114.304688 C 248.242188 115.59375 248.113281 114.089844 247.671875 112.535156 C 247.394531 111.554688 247.425781 111.550781 246.449219 111.046875 C 246.007812 110.820312 245.472656 110.5 245.019531 110.332031 C 244.625 110.183594 242.726562 110.074219 242.691406 109.402344 C 242.589844 107.417969 249.734375 111.269531 250.296875 111.699219 C 251.078125 109.4375 251.816406 107.433594 250.765625 105.15625 C 249.792969 103.050781 247.84375 100.359375 245.683594 99.394531 C 243.859375 98.578125 241.734375 98.636719 239.871094 99.226562 C 239.050781 99.488281 238.15625 99.851562 237.394531 100.234375 C 236.707031 100.585938 236.292969 101.085938 235.558594 101.304688 C 235.636719 101.609375 236.019531 102.472656 236.191406 102.726562 C 236.574219 103.292969 236.195312 103.078125 236.972656 103.355469 C 237.6875 103.609375 238.929688 103.152344 239.566406 103.535156 C 240.78125 104.273438 238.523438 104.640625 237.738281 104.613281 C 236.714844 104.582031 236.449219 104.132812 236.183594 105.210938 C 236.0625 105.703125 236.09375 106.289062 236.015625 106.800781 C 235.890625 107.648438 236.308594 110.824219 235.785156 111.332031 C 235.054688 112.039062 234.386719 110.960938 234.296875 110.339844 C 234.160156 109.410156 234.523438 107.933594 234.636719 106.988281 C 234.855469 105.179688 235.195312 103.578125 234.285156 101.851562 C 232.742188 98.933594 229.507812 97.679688 226.472656 97.070312 C 227.078125 98.070312 227.488281 99.066406 227.800781 100.203125 C 227.941406 100.710938 227.878906 101.734375 228.191406 102.171875 C 228.410156 102.480469 229.078125 102.582031 229.363281 102.925781 C 230.371094 104.136719 230.074219 106.851562 228.976562 107.839844 C 227.6875 109 225.785156 108.664062 224.226562 108.402344 C 223.882812 108.34375 222.449219 108.296875 222.410156 107.890625 C 222.292969 106.785156 224.554688 107.570312 224.824219 107.585938 C 226.253906 107.675781 228.480469 106.390625 227.773438 104.578125 C 227.628906 104.210938 227.296875 104.300781 227.160156 104.046875 C 226.796875 103.371094 226.78125 102.949219 226.699219 102.121094 C 226.339844 98.539062 223.785156 94 219.398438 95.296875 C 219.003906 95.433594 219.601562 95.234375 219.398438 95.296875 Z M 219.398438 95.296875 " fill-opacity="1" fill-rule="nonzero"/></g><path fill="#361163" d="M 234.753906 113.320312 C 236.5 112.671875 239.082031 115.734375 239.480469 117.160156 C 239.851562 118.480469 239.863281 120.464844 239.617188 121.804688 C 240.753906 121.710938 241.863281 121.632812 242.960938 121.3125 C 243.957031 121.023438 244.570312 120.578125 244.226562 121.921875 C 243.914062 123.128906 242.851562 123.367188 241.746094 123.492188 C 241.015625 123.574219 240.058594 123.226562 239.390625 123.386719 C 238.6875 123.558594 238.503906 124.125 237.824219 124.648438 C 236.320312 125.804688 234.695312 125.757812 232.921875 125.882812 C 233.132812 126.488281 234.421875 130.800781 232.625 129.164062 C 231.921875 128.523438 231.820312 127.121094 231.398438 126.285156 C 231.171875 125.839844 228.941406 123.597656 229.757812 122.980469 C 230.308594 122.5625 231.984375 124.730469 232.570312 124.769531 C 233.621094 124.835938 236.042969 123.589844 236.855469 122.945312 C 238.433594 121.691406 238.3125 119.609375 237.824219 117.824219 C 237.230469 115.65625 235.699219 115.121094 234.753906 113.320312 C 235.015625 113.222656 234.960938 113.714844 234.753906 113.320312 Z M 234.753906 113.320312 " fill-opacity="1" fill-rule="nonzero"/><path fill="#361163" d="M 220.210938 123.167969 C 220.117188 121.671875 222.285156 123.972656 222.445312 124.210938 C 223.007812 125.035156 224.253906 126.890625 222.644531 127.058594 C 225.394531 127.058594 228 127.921875 229.886719 129.996094 C 232.347656 132.695312 233.234375 136.632812 235.980469 139.089844 C 238.238281 141.105469 240.113281 141.683594 242.96875 140.742188 C 244.824219 140.132812 245.394531 139.007812 246.820312 137.96875 C 250.28125 142.402344 240.503906 142.730469 238.363281 142.820312 C 239.894531 144.875 238 148.355469 236.480469 149.863281 C 238.53125 151.367188 238.953125 154.214844 237.644531 156.398438 C 236.003906 159.144531 232.359375 159.9375 229.410156 159.441406 C 229.378906 160.851562 229.484375 162.050781 229.105469 163.382812 C 233.203125 164.109375 236.523438 167.863281 236.625 172.03125 C 237.699219 171.785156 238.667969 171.386719 239.789062 171.398438 C 242.164062 171.417969 244.601562 172.519531 246.734375 173.429688 C 247.246094 171.207031 248.757812 169.554688 250.914062 168.894531 C 251.90625 168.59375 254.667969 167.90625 255.4375 168.984375 C 254.058594 169.648438 252.507812 169.402344 251.125 170.078125 C 249.953125 170.644531 249.261719 171.589844 248.722656 172.746094 C 248.429688 173.375 248.210938 174.664062 247.613281 175.089844 C 246.710938 175.738281 245.851562 174.492188 245.050781 174.019531 C 243.785156 173.269531 242.042969 172.660156 240.566406 172.558594 C 239.769531 172.503906 237.066406 172.691406 236.59375 173.234375 C 236.25 173.628906 236.488281 175.210938 236.390625 175.8125 C 236.296875 176.390625 236.132812 176.890625 235.992188 177.449219 C 235.871094 177.945312 235.863281 178.550781 235.574219 178.988281 C 235.277344 179.429688 233.902344 180.242188 233.441406 179.488281 C 233.191406 179.082031 234.535156 177.234375 234.675781 176.832031 C 235.203125 175.324219 235.546875 173.152344 235.289062 171.570312 C 234.878906 169.050781 233.039062 166.265625 230.730469 165.140625 C 228.207031 163.90625 226.503906 164.433594 224.976562 166.683594 C 224.59375 167.246094 224.058594 168.335938 223.292969 168.371094 C 222.421875 168.410156 221.21875 167.03125 220.335938 166.761719 C 218.265625 166.128906 217.175781 167.128906 216.058594 168.570312 C 215.132812 169.761719 213.242188 170.972656 213.996094 168.371094 C 215.230469 164.125 220.226562 165.371094 223.140625 166.410156 C 224.070312 164.035156 225.601562 163.128906 228.035156 163.195312 C 227.9375 161.945312 228.273438 160.773438 227.9375 159.542969 C 227.582031 158.242188 226.890625 157.515625 225.9375 156.644531 C 225.503906 156.246094 224.460938 155.519531 225.128906 155 C 225.472656 154.734375 225.914062 155.015625 226.242188 155.121094 C 227.105469 155.402344 227.820312 156.113281 228.332031 156.832031 C 228.6875 157.339844 228.890625 158 229.425781 158.226562 C 229.84375 158.402344 230.691406 158.257812 231.128906 158.21875 C 232.261719 158.117188 233.484375 157.769531 234.484375 157.199219 C 235.3125 156.730469 235.839844 156.128906 236.222656 155.257812 C 237.011719 153.480469 236.234375 152.65625 235.425781 151.21875 C 234.714844 149.960938 235.386719 149.480469 236.085938 148.410156 C 236.761719 147.386719 237.261719 146.175781 237.207031 144.941406 C 237.136719 143.40625 236.933594 142.042969 235.832031 140.847656 C 234.519531 139.417969 233.269531 138.351562 232.378906 136.558594 C 231.1875 134.160156 229.976562 131.464844 227.8125 129.765625 C 225.878906 128.25 222.738281 127.941406 220.347656 128.066406 C 219.839844 128.089844 217.3125 128.558594 218.191406 127.375 C 218.773438 126.597656 221.019531 127 221.75 127.03125 C 221.464844 126.453125 221.457031 125.761719 221.21875 125.164062 C 220.9375 124.464844 220.378906 123.921875 220.210938 123.167969 C 220.183594 122.78125 220.402344 124.015625 220.210938 123.167969 Z M 220.210938 123.167969 " fill-opacity="1" fill-rule="nonzero"/><path fill="#361163" d="M 247.367188 123.261719 C 248.570312 125.089844 248.8125 128.554688 248.644531 130.65625 C 248.601562 131.179688 248.328125 131.777344 248.324219 132.277344 C 248.320312 132.945312 248.601562 133.433594 249.042969 134.054688 C 249.886719 135.242188 250.996094 136.242188 251.910156 137.375 C 253.644531 134.5 254.5625 132.492188 253.699219 129.019531 C 253.472656 128.113281 253.1875 127.386719 252.558594 126.695312 C 252.0625 126.152344 251.171875 125.753906 251.207031 124.921875 C 252.644531 124.925781 254.25 126.460938 254.984375 127.667969 C 255.695312 128.84375 255.414062 130.6875 255.507812 131.988281 C 256.859375 131.949219 257.933594 132.015625 259.238281 132.359375 C 260.023438 132.566406 262.597656 132.957031 262.425781 134.105469 C 262.167969 135.796875 260.613281 134.4375 260.054688 134.089844 C 258.824219 133.320312 257.867188 133.320312 256.476562 133.433594 C 255.152344 133.542969 255.640625 133.507812 255.328125 134.65625 C 255.171875 135.226562 254.773438 135.730469 254.496094 136.242188 C 254.214844 136.75 253.964844 137.265625 253.59375 137.714844 C 252.933594 138.515625 252.84375 138.160156 253.105469 138.988281 C 253.417969 139.980469 254.679688 140.851562 255.199219 141.78125 C 255.914062 143.0625 256.492188 144.609375 256.851562 146.035156 C 258.886719 143.527344 261.230469 142.277344 264.507812 143.273438 C 264.445312 144.375 262.3125 144.132812 261.667969 144.285156 C 261.078125 144.421875 260.371094 144.667969 259.867188 145.027344 C 259.539062 145.257812 259.265625 145.601562 258.972656 145.878906 C 258.582031 146.25 257.375 147 257.226562 147.46875 C 257.09375 147.894531 257.402344 148.660156 257.449219 149.082031 C 257.777344 152 257.410156 156.566406 255.335938 158.898438 C 256.78125 159.082031 258.492188 160.136719 259.4375 161.226562 C 259.835938 161.683594 261.164062 164.234375 260.265625 164.59375 C 259.253906 165 257.800781 161.625 257.042969 161.082031 C 256.640625 160.796875 255.007812 159.773438 254.53125 159.914062 C 254.011719 160.074219 253.335938 161.347656 252.945312 161.765625 C 251.789062 163.015625 250.382812 164.128906 248.832031 164.84375 C 248.308594 165.082031 246.40625 165.96875 245.839844 165.386719 C 245.148438 164.6875 246.929688 164.039062 247.378906 163.851562 C 252.488281 161.6875 256.363281 156.554688 256.292969 150.84375 C 256.226562 145.492188 253.171875 139.265625 248.785156 136.066406 C 247.828125 135.363281 245.945312 135.074219 245.945312 133.832031 C 245.949219 132.535156 247.234375 131.183594 247.367188 129.828125 C 247.464844 128.800781 247.269531 127.644531 246.980469 126.667969 C 246.71875 125.777344 245.953125 123.710938 247.367188 123.261719 C 247.921875 124.105469 247 123.378906 247.367188 123.261719 Z M 247.367188 123.261719 " fill-opacity="1" fill-rule="nonzero"/><path fill="#361163" d="M 220.84375 134.667969 C 222.199219 134.523438 223.625 136.144531 224.625 136.8125 C 225.34375 137.292969 226.171875 137.816406 227.035156 137.976562 C 227.988281 138.148438 228.6875 137.769531 229.613281 137.710938 C 230.152344 139.339844 229.042969 140.003906 227.777344 140.117188 C 226.601562 140.222656 226.019531 139.789062 225.261719 140.828125 C 224.753906 141.527344 224.464844 142.378906 224.253906 143.207031 C 223.785156 145.023438 223.859375 146.371094 224.394531 148.144531 C 224.507812 148.519531 224.589844 148.910156 224.703125 149.285156 C 224.953125 150.128906 224.621094 149.917969 225.308594 150.332031 C 226.0625 150.785156 226.839844 150.265625 227.316406 151.316406 C 227.136719 151.804688 222.289062 150.949219 221.453125 151.140625 C 220.476562 151.359375 219.5625 151.957031 218.757812 152.53125 C 218.230469 152.910156 217.15625 154.242188 216.472656 154.15625 C 214.550781 153.910156 218.210938 151.140625 218.835938 150.8125 C 220.421875 149.976562 221.886719 150.097656 223.59375 150.03125 C 222.132812 147.585938 221.910156 144.46875 223.144531 141.742188 C 223.363281 141.257812 224.589844 139.921875 224.542969 139.425781 C 224.511719 139.097656 223.578125 138.265625 223.359375 138.015625 C 222.898438 137.492188 222.46875 136.792969 221.925781 136.382812 C 221.578125 136.121094 218.921875 134.90625 220.84375 134.667969 C 221.164062 134.632812 220.246094 134.742188 220.84375 134.667969 Z M 220.84375 134.667969 " fill-opacity="1" fill-rule="nonzero"/><path fill="#361163" d="M 228.125 180.621094 C 227.761719 179.234375 229.796875 180.523438 230.054688 180.976562 C 230.414062 181.605469 230.488281 182.15625 230.535156 182.875 C 230.648438 184.660156 230.566406 186.046875 229.378906 187.378906 C 231.183594 187.816406 233.546875 187.148438 235.25 186.585938 C 236.316406 186.234375 237.132812 185.785156 237.941406 184.996094 C 238.535156 184.414062 239.070312 183.472656 239.972656 183.359375 C 240.605469 185.394531 238.945312 186.167969 237.582031 187.089844 C 235.3125 188.625 233.015625 188.683594 230.320312 188.800781 C 229.3125 188.84375 228.214844 188.957031 227.238281 188.632812 C 227.0625 188.570312 226.925781 188.429688 226.757812 188.359375 C 226.367188 188.203125 226.007812 187.960938 225.582031 187.894531 C 224.699219 187.753906 224.316406 188.058594 223.480469 188.445312 C 222.390625 188.941406 219.96875 190.105469 218.710938 189.757812 C 216.273438 189.085938 220.890625 188.214844 221.273438 188.078125 C 222.183594 187.753906 222.316406 187.222656 223.019531 186.691406 C 224.003906 185.949219 225.117188 186.148438 226.257812 186.289062 C 227.121094 186.394531 227.398438 186.613281 228.042969 185.917969 C 228.464844 185.464844 228.679688 184.679688 228.789062 184.089844 C 229.039062 182.746094 228.375 181.894531 228.125 180.617188 C 228.042969 180.308594 228.207031 181.042969 228.125 180.617188 Z M 228.125 180.621094 " fill-opacity="1" fill-rule="nonzero"/><path fill="#361163" d="M 247.691406 182.789062 C 247.820312 182.585938 247.949219 182.382812 248.074219 182.175781 C 249.765625 183.496094 249.820312 186.023438 250.296875 187.933594 C 250.757812 189.777344 251.214844 192.039062 249.976562 193.617188 C 248.746094 195.183594 246.835938 195.695312 244.914062 195.753906 C 243.910156 195.785156 242.980469 195.746094 242.050781 195.316406 C 241.863281 195.230469 241.554688 195.023438 241.363281 194.980469 C 241.128906 194.535156 240.894531 194.46875 240.660156 194.785156 C 240.425781 194.972656 240.195312 195.160156 239.96875 195.355469 C 235.613281 198.113281 229.671875 198.390625 224.886719 197.070312 C 225.101562 198.898438 225.433594 201.058594 223.859375 202.433594 C 223.21875 202.996094 220.96875 203.585938 220.183594 203.066406 C 219.132812 202.367188 220.65625 201.730469 221.328125 201.3125 C 222.3125 200.695312 223.371094 200.359375 223.648438 199.125 C 223.789062 198.492188 223.699219 196.617188 223.40625 196.238281 C 223.277344 196.070312 216.738281 192.792969 219.132812 191.863281 C 219.820312 191.597656 220.871094 193.042969 221.339844 193.441406 C 222.226562 194.207031 223.140625 194.777344 224.226562 195.226562 C 226.929688 196.351562 229.335938 196.71875 232.21875 196.320312 C 234.546875 196 236.871094 195.332031 238.734375 193.847656 C 239.15625 193.515625 239.597656 192.863281 240.074219 192.628906 C 240.8125 192.265625 240.636719 192.527344 241.351562 192.949219 C 243.839844 194.429688 248.292969 194.4375 249.222656 191.078125 C 249.976562 188.347656 247.710938 185.496094 247.691406 182.789062 C 247.769531 182.558594 247.695312 183.5 247.691406 182.789062 Z M 247.691406 182.789062 " fill-opacity="1" fill-rule="nonzero"/><path fill="#90278e" d="M 124.078125 149.242188 L 199.949219 149.242188 L 199.949219 186.921875 L 124.078125 186.921875 Z M 124.078125 149.242188 " fill-opacity="1" fill-rule="nonzero"/><path fill="#90278e" d="M 190.769531 190.722656 L 186.175781 190.722656 L 186.175781 183.082031 L 190.769531 183.082031 Z M 181.585938 190.722656 L 176.996094 190.722656 L 176.996094 183.082031 L 181.585938 183.082031 Z M 172.402344 190.722656 L 167.8125 190.722656 L 167.8125 183.082031 L 172.402344 183.082031 Z M 163.222656 190.722656 L 158.628906 190.722656 L 158.628906 183.082031 L 163.222656 183.082031 Z M 154.078125 190.722656 L 149.488281 190.722656 L 149.488281 183.082031 L 154.078125 183.082031 Z M 144.894531 190.722656 L 140.304688 190.722656 L 140.304688 183.082031 L 144.894531 183.082031 Z M 135.714844 190.722656 L 131.121094 190.722656 L 131.121094 183.082031 L 135.714844 183.082031 Z M 127.875 180.234375 L 120.238281 180.234375 L 120.238281 175.640625 L 127.875 175.640625 Z M 203.75 175.40625 L 196.109375 175.40625 L 196.109375 170.8125 L 203.75 170.8125 Z M 127.875 171.050781 L 120.238281 171.050781 L 120.238281 166.460938 L 127.875 166.460938 Z M 203.75 166.222656 L 196.109375 166.222656 L 196.109375 161.632812 L 203.75 161.632812 Z M 127.875 161.867188 L 120.238281 161.867188 L 120.238281 157.277344 L 127.875 157.277344 Z M 189.421875 153.042969 L 184.832031 153.042969 L 184.832031 145.402344 L 189.421875 145.402344 Z M 180.238281 153.042969 L 175.648438 153.042969 L 175.648438 145.402344 L 180.238281 145.402344 Z M 171.058594 153.042969 L 166.464844 153.042969 L 166.464844 145.402344 L 171.058594 145.402344 Z M 161.875 153.042969 L 157.285156 153.042969 L 157.285156 145.402344 L 161.875 145.402344 Z M 152.730469 153.042969 L 148.140625 153.042969 L 148.140625 145.402344 L 152.730469 145.402344 Z M 143.550781 153.042969 L 138.957031 153.042969 L 138.957031 145.402344 L 143.550781 145.402344 Z M 134.367188 153.042969 L 129.777344 153.042969 L 129.777344 145.402344 L 134.367188 145.402344 Z M 134.367188 153.042969 " fill-opacity="1" fill-rule="nonzero"/><path fill="#90278e" d="M 187.839844 122.566406 L 189.027344 122.566406 L 189.027344 145.523438 L 187.839844 145.523438 Z M 187.839844 122.566406 " fill-opacity="1" fill-rule="nonzero"/><path fill="#90278e" d="M 187.839844 122.566406 L 211.980469 122.566406 L 211.980469 124.148438 L 187.839844 124.148438 Z M 187.839844 122.566406 " fill-opacity="1" fill-rule="nonzero"/><path fill="#90278e" d="M 212.21875 125.851562 C 214.988281 125.851562 214.988281 121.578125 212.21875 121.578125 C 209.449219 121.578125 209.449219 125.851562 212.21875 125.851562 Z M 212.21875 125.851562 " fill-opacity="1" fill-rule="nonzero"/><path fill="#90278e" d="M 177.546875 107.132812 L 179.132812 107.132812 L 179.132812 145.523438 L 177.546875 145.523438 Z M 177.546875 107.132812 " fill-opacity="1" fill-rule="nonzero"/><path fill="#90278e" d="M 177.546875 107.132812 L 196.152344 107.132812 L 196.152344 108.320312 L 177.546875 108.320312 Z M 177.546875 107.132812 " fill-opacity="1" fill-rule="nonzero"/><path fill="#90278e" d="M 194.964844 95.652344 L 196.152344 95.652344 L 196.152344 108.320312 L 194.964844 108.320312 Z M 194.964844 95.652344 " fill-opacity="1" fill-rule="nonzero"/><path fill="#90278e" d="M 195.398438 97.871094 C 198.167969 97.871094 198.167969 93.59375 195.398438 93.59375 C 192.628906 93.59375 192.628906 97.871094 195.398438 97.871094 Z M 195.398438 97.871094 " fill-opacity="1" fill-rule="nonzero"/><path fill="#90278e" d="M 167.652344 94.070312 L 169.238281 94.070312 L 169.238281 145.523438 L 167.652344 145.523438 Z M 167.652344 94.070312 " fill-opacity="1" fill-rule="nonzero"/><path fill="#90278e" d="M 159.34375 117.027344 L 160.53125 117.027344 L 160.53125 145.523438 L 159.34375 145.523438 Z M 159.34375 117.027344 " fill-opacity="1" fill-rule="nonzero"/><path fill="#90278e" d="M 149.449219 128.503906 L 150.632812 128.503906 L 150.632812 145.523438 L 149.449219 145.523438 Z M 149.449219 128.503906 " fill-opacity="1" fill-rule="nonzero"/><path fill="#90278e" d="M 137.96875 128.503906 L 149.449219 128.503906 L 149.449219 129.691406 L 137.96875 129.691406 Z M 137.96875 128.503906 " fill-opacity="1" fill-rule="nonzero"/><path fill="#90278e" d="M 136.386719 108.320312 L 137.96875 108.320312 L 137.96875 129.691406 L 136.386719 129.691406 Z M 136.386719 108.320312 " fill-opacity="1" fill-rule="nonzero"/><path fill="#90278e" d="M 140.738281 135.628906 L 142.324219 135.628906 L 142.324219 145.523438 L 140.738281 145.523438 Z M 140.738281 135.628906 " fill-opacity="1" fill-rule="nonzero"/><path fill="#90278e" d="M 126.492188 135.628906 L 140.738281 135.628906 L 140.738281 136.816406 L 126.492188 136.816406 Z M 126.492188 135.628906 " fill-opacity="1" fill-rule="nonzero"/><path fill="#90278e" d="M 132.03125 141.167969 L 133.617188 141.167969 L 133.617188 145.523438 L 132.03125 145.523438 Z M 132.03125 141.167969 " fill-opacity="1" fill-rule="nonzero"/><path fill="#90278e" d="M 106.703125 141.167969 L 132.03125 141.167969 L 132.03125 142.753906 L 106.703125 142.753906 Z M 106.703125 141.167969 " fill-opacity="1" fill-rule="nonzero"/><path fill="#90278e" d="M 106.464844 144.851562 C 109.234375 144.851562 109.234375 140.574219 106.464844 140.574219 C 103.734375 140.574219 103.734375 144.851562 106.464844 144.851562 Z M 106.464844 144.851562 " fill-opacity="1" fill-rule="nonzero"/><path fill="#90278e" d="M 125.699219 138.914062 C 128.46875 138.914062 128.46875 134.636719 125.699219 134.636719 C 122.929688 134.636719 122.929688 138.914062 125.699219 138.914062 Z M 125.699219 138.914062 " fill-opacity="1" fill-rule="nonzero"/><path fill="#90278e" d="M 136.585938 111.167969 C 139.355469 111.167969 139.355469 106.894531 136.585938 106.894531 C 133.8125 106.894531 133.851562 111.167969 136.585938 111.167969 Z M 136.585938 111.167969 " fill-opacity="1" fill-rule="nonzero"/><path fill="#90278e" d="M 159.105469 119.480469 C 161.875 119.480469 161.875 115.207031 159.105469 115.207031 C 156.375 115.207031 156.375 119.480469 159.105469 119.480469 Z M 159.105469 119.480469 " fill-opacity="1" fill-rule="nonzero"/><g clip-path="url(#8d6b2dadce)"><path fill="#90278e" d="M 167.890625 95.773438 C 170.660156 95.773438 170.660156 91.496094 167.890625 91.496094 C 165.121094 91.496094 165.121094 95.773438 167.890625 95.773438 Z M 167.890625 95.773438 " fill-opacity="1" fill-rule="nonzero"/></g><path fill="#90278e" d="M 203.273438 162.542969 L 224.648438 162.542969 L 224.648438 164.125 L 203.273438 164.125 Z M 203.273438 162.542969 " fill-opacity="1" fill-rule="nonzero"/><path fill="#90278e" d="M 203.273438 172.4375 L 220.292969 172.4375 L 220.292969 174.019531 L 203.273438 174.019531 Z M 203.273438 172.4375 " fill-opacity="1" fill-rule="nonzero"/><path fill="#90278e" d="M 219.105469 174.019531 L 220.292969 174.019531 L 220.292969 193.808594 L 219.105469 193.808594 Z M 219.105469 174.019531 " fill-opacity="1" fill-rule="nonzero"/><path fill="#90278e" d="M 224.566406 165.707031 C 227.339844 165.707031 227.339844 161.433594 224.566406 161.433594 C 221.796875 161.433594 221.796875 165.707031 224.566406 165.707031 Z M 224.566406 165.707031 " fill-opacity="1" fill-rule="nonzero"/><path fill="#90278e" d="M 219.820312 196.300781 C 222.589844 196.300781 222.589844 192.027344 219.820312 192.027344 C 217.046875 192.027344 217.046875 196.300781 219.820312 196.300781 Z M 219.820312 196.300781 " fill-opacity="1" fill-rule="nonzero"/><path fill="#90278e" d="M 187.839844 191.039062 L 189.027344 191.039062 L 189.027344 215.179688 L 187.839844 215.179688 Z M 187.839844 191.039062 " fill-opacity="1" fill-rule="nonzero"/><path fill="#90278e" d="M 187.839844 215.179688 L 211.980469 215.179688 L 211.980469 216.367188 L 187.839844 216.367188 Z M 187.839844 215.179688 " fill-opacity="1" fill-rule="nonzero"/><path fill="#90278e" d="M 179.132812 191.039062 L 180.714844 191.039062 L 180.714844 225.078125 L 179.132812 225.078125 Z M 179.132812 191.039062 " fill-opacity="1" fill-rule="nonzero"/><path fill="#90278e" d="M 179.132812 225.078125 L 202.085938 225.078125 L 202.085938 226.660156 L 179.132812 226.660156 Z M 179.132812 225.078125 " fill-opacity="1" fill-rule="nonzero"/><path fill="#90278e" d="M 169.238281 191.039062 L 170.425781 191.039062 L 170.425781 225.078125 L 169.238281 225.078125 Z M 169.238281 191.039062 " fill-opacity="1" fill-rule="nonzero"/><path fill="#90278e" d="M 160.609375 239.324219 L 143.511719 239.324219 L 143.511719 237.742188 L 160.015625 237.742188 L 160.53125 237.464844 L 160.53125 189.457031 L 162.113281 189.457031 L 162.113281 238.058594 Z M 160.609375 239.324219 " fill-opacity="1" fill-rule="nonzero"/><path fill="#90278e" d="M 150.632812 189.457031 L 152.21875 189.457031 L 152.21875 227.847656 L 150.632812 227.847656 Z M 150.632812 189.457031 " fill-opacity="1" fill-rule="nonzero"/><path fill="#90278e" d="M 140.660156 234.972656 L 126.492188 234.972656 L 126.492188 233.785156 L 140.066406 233.785156 L 140.738281 233.230469 L 140.738281 188.269531 L 142.324219 188.269531 L 142.324219 233.785156 Z M 140.660156 234.972656 " fill-opacity="1" fill-rule="nonzero"/><path fill="#90278e" d="M 132.152344 210.828125 L 115.015625 210.828125 L 115.015625 209.640625 L 131.558594 209.640625 L 132.03125 209.046875 L 132.03125 188.269531 L 133.617188 188.269531 L 133.617188 209.601562 Z M 132.152344 210.828125 " fill-opacity="1" fill-rule="nonzero"/><path fill="#90278e" d="M 211.746094 218.109375 C 214.515625 218.109375 214.515625 213.835938 211.746094 213.835938 C 208.972656 213.835938 208.972656 218.109375 211.746094 218.109375 Z M 211.746094 218.109375 " fill-opacity="1" fill-rule="nonzero"/><path fill="#90278e" d="M 201.53125 228.28125 C 204.304688 228.28125 204.304688 224.007812 201.53125 224.007812 C 198.761719 224.007812 198.800781 228.28125 201.53125 228.28125 Z M 201.53125 228.28125 " fill-opacity="1" fill-rule="nonzero"/><path fill="#90278e" d="M 169.316406 227.570312 C 172.085938 227.570312 172.085938 223.296875 169.316406 223.296875 C 166.546875 223.296875 166.546875 227.570312 169.316406 227.570312 Z M 169.316406 227.570312 " fill-opacity="1" fill-rule="nonzero"/><path fill="#90278e" d="M 150.792969 230.65625 C 153.5625 230.65625 153.5625 226.382812 150.792969 226.382812 C 148.0625 226.382812 148.0625 230.65625 150.792969 230.65625 Z M 150.792969 230.65625 " fill-opacity="1" fill-rule="nonzero"/><g clip-path="url(#0f59e8ede8)"><path fill="#90278e" d="M 143.234375 241.34375 C 146.003906 241.34375 146.003906 237.070312 143.234375 237.070312 C 140.464844 237.070312 140.464844 241.34375 143.234375 241.34375 Z M 143.234375 241.34375 " fill-opacity="1" fill-rule="nonzero"/></g><path fill="#90278e" d="M 125.898438 236.59375 C 128.667969 236.59375 128.667969 232.320312 125.898438 232.320312 C 123.167969 232.320312 123.167969 236.59375 125.898438 236.59375 Z M 125.898438 236.59375 " fill-opacity="1" fill-rule="nonzero"/><path fill="#90278e" d="M 114.300781 212.648438 C 117.070312 212.648438 117.070312 208.375 114.300781 208.375 C 111.53125 208.375 111.53125 212.648438 114.300781 212.648438 Z M 114.300781 212.648438 " fill-opacity="1" fill-rule="nonzero"/><path fill="#90278e" d="M 93.640625 158.1875 L 122.136719 158.1875 L 122.136719 159.769531 L 93.640625 159.769531 Z M 93.640625 158.1875 " fill-opacity="1" fill-rule="nonzero"/><path fill="#90278e" d="M 82.558594 168.082031 L 123.722656 168.082031 L 123.722656 169.664062 L 82.558594 169.664062 Z M 82.558594 168.082031 " fill-opacity="1" fill-rule="nonzero"/><path fill="#90278e" d="M 80.976562 143.941406 L 82.558594 143.941406 L 82.558594 169.664062 L 80.976562 169.664062 Z M 80.976562 143.941406 " fill-opacity="1" fill-rule="nonzero"/><path fill="#90278e" d="M 96.808594 196.578125 L 95.222656 196.578125 L 95.222656 177.738281 L 95.976562 176.789062 L 123.722656 176.789062 L 123.722656 177.976562 L 96.570312 177.976562 L 96.808594 178.332031 Z M 96.808594 196.578125 " fill-opacity="1" fill-rule="nonzero"/><path fill="#90278e" d="M 81.570312 146.511719 C 84.339844 146.511719 84.339844 142.238281 81.570312 142.238281 C 78.839844 142.238281 78.839844 146.511719 81.570312 146.511719 Z M 81.570312 146.511719 " fill-opacity="1" fill-rule="nonzero"/><path fill="#90278e" d="M 93.917969 161.195312 C 96.6875 161.195312 96.6875 156.921875 93.917969 156.921875 C 91.148438 156.921875 91.148438 161.195312 93.917969 161.195312 Z M 93.917969 161.195312 " fill-opacity="1" fill-rule="nonzero"/><path fill="#90278e" d="M 95.34375 199.351562 C 98.113281 199.351562 98.113281 195.074219 95.34375 195.074219 C 92.574219 195.113281 92.574219 199.351562 95.34375 199.351562 Z M 95.34375 199.351562 " fill-opacity="1" fill-rule="nonzero"/><g fill="#361163" fill-opacity="1"><g transform="translate(26.404795, 277.543311)"><g><path d="M 23.910156 -21.59375 L 20.8125 -21.59375 L 13.550781 -1.628906 L 6.257812 -21.59375 L 3.097656 -21.59375 L 3.097656 0 L 5.039062 0 L 5.039062 -11.644531 C 5.039062 -14.335938 5.039062 -17.339844 4.976562 -19.84375 C 5.789062 -17.371094 6.886719 -14.335938 7.855469 -11.707031 L 12.269531 0 L 14.710938 0 L 19.089844 -11.675781 C 20.09375 -14.335938 21.1875 -17.371094 22.035156 -19.875 C 21.972656 -17.371094 21.972656 -14.367188 21.972656 -11.644531 L 21.972656 0 L 23.910156 0 Z M 23.910156 -21.59375 "/></g></g></g><g fill="#361163" fill-opacity="1"><g transform="translate(52.656303, 277.543311)"><g><path d="M 12.207031 0 L 14.144531 0 C 13.925781 -1.972656 13.832031 -3.160156 13.832031 -4.632812 L 13.832031 -10.421875 C 13.832031 -11.203125 13.832031 -11.894531 13.769531 -12.613281 C 13.519531 -15.335938 11.800781 -16.996094 8.136719 -16.996094 C 4.632812 -16.996094 2.160156 -14.898438 1.941406 -11.644531 L 3.976562 -11.644531 C 4.226562 -14.210938 5.851562 -15.429688 8.136719 -15.429688 C 10.515625 -15.429688 11.675781 -14.335938 11.832031 -12.425781 C 11.894531 -11.769531 11.894531 -11.140625 11.894531 -10.390625 L 11.894531 -9.796875 L 10.828125 -9.796875 C 4.851562 -9.796875 1.25 -7.949219 1.25 -4.164062 C 1.25 -1.15625 3.441406 0.4375 6.511719 0.4375 C 8.324219 0.4375 9.953125 -0.09375 11.109375 -1.25 L 11.925781 -3.003906 Z M 7.105469 -1.09375 C 4.695312 -1.09375 3.378906 -2.222656 3.378906 -4.320312 C 3.378906 -7.511719 7.230469 -8.605469 11.894531 -8.292969 L 11.894531 -6.382812 C 11.894531 -3.285156 9.984375 -1.09375 7.105469 -1.09375 Z M 7.105469 -1.09375 "/></g></g></g><g fill="#361163" fill-opacity="1"><g transform="translate(68.832732, 277.543311)"><g><path d="M 8.636719 -16.996094 C 4.476562 -16.996094 0.9375 -13.738281 0.9375 -8.261719 C 0.9375 -2.410156 4.164062 0.4375 8.292969 0.4375 C 11.863281 0.4375 14.585938 -1.503906 15.335938 -5.164062 L 13.332031 -5.164062 C 12.738281 -2.503906 10.859375 -1.09375 8.417969 -1.09375 C 5.632812 -1.09375 3.066406 -3.316406 3.066406 -8.417969 C 3.066406 -13.207031 5.789062 -15.460938 8.574219 -15.460938 C 11.234375 -15.460938 12.894531 -13.925781 13.457031 -11.140625 L 15.492188 -11.140625 C 14.992188 -14.648438 12.457031 -16.996094 8.636719 -16.996094 Z M 8.636719 -16.996094 "/></g></g></g><g fill="#361163" fill-opacity="1"><g transform="translate(85.259477, 277.543311)"><g><path d="M 15.585938 -12.050781 C 15.273438 -15.085938 13.269531 -16.996094 9.765625 -16.996094 C 7.917969 -16.996094 6.449219 -16.492188 5.101562 -15.148438 L 4.226562 -13.363281 L 4.226562 -23.160156 L 2.285156 -23.160156 L 2.285156 0 L 4.226562 0 L 4.226562 -8.230469 C 4.226562 -13.394531 6.636719 -15.367188 9.390625 -15.398438 C 12.175781 -15.429688 13.425781 -13.800781 13.644531 -11.546875 C 13.707031 -10.703125 13.707031 -9.984375 13.707031 -9.046875 L 13.707031 0 L 15.648438 0 L 15.648438 -9.265625 C 15.648438 -10.609375 15.648438 -11.203125 15.585938 -12.050781 Z M 15.585938 -12.050781 "/></g></g></g><g fill="#361163" fill-opacity="1"><g transform="translate(103.062935, 277.543311)"><g><path d="M 3.253906 -21.4375 C 2.535156 -21.4375 1.941406 -20.875 1.941406 -20.125 C 1.941406 -19.40625 2.535156 -18.808594 3.253906 -18.808594 C 4.007812 -18.808594 4.570312 -19.40625 4.570312 -20.125 C 4.570312 -20.875 4.007812 -21.4375 3.253906 -21.4375 Z M 4.226562 0 L 4.226562 -16.554688 L 2.285156 -16.554688 L 2.285156 0 Z M 4.226562 0 "/></g></g></g><g fill="#361163" fill-opacity="1"><g transform="translate(109.633629, 277.543311)"><g><path d="M 15.585938 -12.050781 C 15.273438 -15.085938 13.269531 -16.996094 9.765625 -16.996094 C 7.917969 -16.996094 6.449219 -16.492188 5.101562 -15.148438 L 4.226562 -13.363281 L 4.226562 -16.554688 L 2.285156 -16.554688 L 2.285156 0 L 4.226562 0 L 4.226562 -8.230469 C 4.226562 -13.394531 6.636719 -15.398438 9.390625 -15.398438 C 12.175781 -15.398438 13.425781 -13.800781 13.644531 -11.546875 C 13.707031 -10.703125 13.707031 -9.984375 13.707031 -9.046875 L 13.707031 0 L 15.648438 0 L 15.648438 -9.265625 C 15.648438 -10.609375 15.648438 -11.203125 15.585938 -12.050781 Z M 15.585938 -12.050781 "/></g></g></g><g fill="#361163" fill-opacity="1"><g transform="translate(127.437087, 277.543311)"><g><path d="M 15.648438 -8.730469 C 15.648438 -13.300781 13.238281 -16.996094 8.605469 -16.996094 C 4.257812 -16.996094 0.9375 -13.582031 0.9375 -8.261719 C 0.9375 -2.441406 4.164062 0.4375 8.292969 0.4375 C 11.613281 0.4375 14.648438 -1.378906 15.429688 -5.226562 L 13.394531 -5.226562 C 12.800781 -2.503906 10.734375 -1.09375 8.417969 -1.09375 C 5.726562 -1.09375 3.253906 -2.816406 3.035156 -7.699219 L 15.585938 -7.699219 C 15.648438 -8.199219 15.648438 -8.511719 15.648438 -8.730469 Z M 8.542969 -15.429688 C 11.328125 -15.429688 13.457031 -13.488281 13.675781 -9.234375 L 3.035156 -9.234375 C 3.316406 -13.363281 5.820312 -15.429688 8.542969 -15.429688 Z M 8.542969 -15.429688 "/></g></g></g><g fill="#361163" fill-opacity="1"><g transform="translate(144.301878, 277.543311)"><g/></g></g><g fill="#361163" fill-opacity="1"><g transform="translate(150.682134, 277.543311)"><g><path d="M 4.226562 0 L 4.226562 -21.59375 L 3.035156 -21.59375 L 3.035156 0 Z M 4.226562 0 "/></g></g></g><g fill="#361163" fill-opacity="1"><g transform="translate(157.190251, 277.543311)"><g><path d="M 14.867188 -11.925781 C 14.554688 -15.054688 12.550781 -16.933594 9.140625 -16.933594 C 7.199219 -16.933594 5.445312 -16.242188 4.195312 -14.679688 L 3.441406 -12.957031 L 3.441406 -16.492188 L 2.253906 -16.492188 L 2.253906 0 L 3.441406 0 L 3.441406 -9.140625 C 3.441406 -13.863281 6.101562 -15.898438 9.015625 -15.898438 C 11.988281 -15.898438 13.394531 -14.144531 13.675781 -11.578125 C 13.769531 -10.734375 13.800781 -10.015625 13.800781 -8.917969 L 13.800781 0 L 14.992188 0 L 14.992188 -9.203125 C 14.992188 -10.546875 14.960938 -11.078125 14.867188 -11.925781 Z M 14.867188 -11.925781 "/></g></g></g><g fill="#361163" fill-opacity="1"><g transform="translate(174.27407, 277.543311)"><g><path d="M 4.070312 -2.566406 C 4.039062 -3.003906 4.039062 -3.410156 4.039062 -4.226562 L 4.039062 -15.429688 L 7.230469 -15.429688 L 7.230469 -16.367188 L 4.039062 -16.367188 L 4.039062 -19.875 L 2.847656 -19.875 L 2.847656 -16.367188 L 0.8125 -16.367188 L 0.8125 -15.429688 L 2.847656 -15.429688 L 2.847656 -4.289062 C 2.847656 -3.347656 2.847656 -2.785156 2.910156 -2.097656 C 3.035156 -0.5 3.882812 0.21875 5.507812 0.21875 C 6.101562 0.21875 6.761719 0.1875 7.261719 0.125 L 7.261719 -0.8125 C 4.914062 -0.46875 4.195312 -0.9375 4.070312 -2.566406 Z M 4.070312 -2.566406 "/></g></g></g><g fill="#361163" fill-opacity="1"><g transform="translate(182.252776, 277.543311)"><g><path d="M 15.367188 -8.699219 C 15.367188 -12.988281 13.082031 -16.933594 8.417969 -16.933594 C 4.226562 -16.933594 0.9375 -13.519531 0.9375 -8.292969 C 0.9375 -2.503906 4.195312 0.4375 8.136719 0.4375 C 11.328125 0.4375 14.210938 -1.410156 15.117188 -5.132812 L 13.894531 -5.132812 C 13.082031 -2.003906 10.703125 -0.5625 8.199219 -0.5625 C 5.320312 -0.5625 2.378906 -2.566406 2.191406 -7.917969 L 15.335938 -7.917969 C 15.367188 -8.324219 15.367188 -8.542969 15.367188 -8.699219 Z M 8.355469 -15.929688 C 11.140625 -15.929688 13.957031 -14.050781 14.144531 -8.949219 L 2.191406 -8.949219 C 2.378906 -13.675781 5.476562 -15.929688 8.355469 -15.929688 Z M 8.355469 -15.929688 "/></g></g></g><g fill="#361163" fill-opacity="1"><g transform="translate(198.773386, 277.543311)"><g><path d="M 3.347656 -23.003906 L 2.160156 -23.003906 L 2.160156 -3.976562 C 2.160156 -2.878906 2.160156 -2.316406 2.191406 -1.691406 C 2.253906 -0.25 3.003906 0.15625 4.039062 0.15625 C 4.414062 0.15625 4.820312 0.15625 5.195312 0.0625 L 5.195312 -0.875 C 3.847656 -0.71875 3.441406 -0.96875 3.378906 -2.003906 C 3.347656 -2.472656 3.347656 -3.066406 3.347656 -4.007812 Z M 3.347656 -23.003906 "/></g></g></g><g fill="#361163" fill-opacity="1"><g transform="translate(204.780881, 277.543311)"><g><path d="M 3.347656 -23.003906 L 2.160156 -23.003906 L 2.160156 -3.976562 C 2.160156 -2.878906 2.160156 -2.316406 2.191406 -1.691406 C 2.253906 -0.25 3.003906 0.15625 4.039062 0.15625 C 4.414062 0.15625 4.820312 0.15625 5.195312 0.0625 L 5.195312 -0.875 C 3.847656 -0.71875 3.441406 -0.96875 3.378906 -2.003906 C 3.347656 -2.472656 3.347656 -3.066406 3.347656 -4.007812 Z M 3.347656 -23.003906 "/></g></g></g><g fill="#361163" fill-opacity="1"><g transform="translate(210.788377, 277.543311)"><g><path d="M 2.847656 -20.84375 C 2.347656 -20.84375 1.941406 -20.4375 1.941406 -19.9375 C 1.941406 -19.4375 2.347656 -19.027344 2.847656 -19.027344 C 3.347656 -19.027344 3.753906 -19.4375 3.753906 -19.9375 C 3.753906 -20.4375 3.347656 -20.84375 2.847656 -20.84375 Z M 3.441406 0 L 3.441406 -16.492188 L 2.253906 -16.492188 L 2.253906 0 Z M 3.441406 0 "/></g></g></g><g fill="#361163" fill-opacity="1"><g transform="translate(216.514267, 277.543311)"><g><path d="M 15.304688 -16.585938 L 14.113281 -16.585938 L 14.113281 -13.144531 L 13.175781 -15.054688 C 11.957031 -16.367188 10.484375 -16.933594 8.574219 -16.933594 C 4.539062 -16.933594 0.9375 -13.988281 0.9375 -8.105469 C 0.9375 -3.128906 3.722656 0.4375 8.167969 0.4375 C 10.265625 0.4375 11.800781 -0.125 13.144531 -1.628906 L 14.113281 -3.503906 L 14.113281 -2.941406 C 14.113281 -1.660156 14.113281 -0.90625 14.082031 0.125 C 13.988281 3.503906 12.019531 5.789062 8.292969 5.789062 C 5.539062 5.789062 3.222656 4.601562 2.847656 1.722656 L 2.816406 1.316406 L 1.597656 1.316406 L 1.660156 1.722656 C 2.128906 5.414062 4.789062 6.824219 8.230469 6.824219 C 12.582031 6.824219 15.148438 4.226562 15.273438 0.21875 C 15.304688 -0.8125 15.304688 -2.097656 15.304688 -4.320312 Z M 8.292969 -0.5625 C 4.351562 -0.5625 2.253906 -4.101562 2.253906 -8.261719 C 2.253906 -12.894531 4.882812 -15.929688 8.574219 -15.929688 C 11.109375 -15.929688 14.113281 -14.335938 14.113281 -9.234375 L 14.113281 -7.636719 C 14.113281 -2.378906 11.421875 -0.5625 8.292969 -0.5625 Z M 8.292969 -0.5625 "/></g></g></g><g fill="#361163" fill-opacity="1"><g transform="translate(234.098709, 277.543311)"><g><path d="M 15.367188 -8.699219 C 15.367188 -12.988281 13.082031 -16.933594 8.417969 -16.933594 C 4.226562 -16.933594 0.9375 -13.519531 0.9375 -8.292969 C 0.9375 -2.503906 4.195312 0.4375 8.136719 0.4375 C 11.328125 0.4375 14.210938 -1.410156 15.117188 -5.132812 L 13.894531 -5.132812 C 13.082031 -2.003906 10.703125 -0.5625 8.199219 -0.5625 C 5.320312 -0.5625 2.378906 -2.566406 2.191406 -7.917969 L 15.335938 -7.917969 C 15.367188 -8.324219 15.367188 -8.542969 15.367188 -8.699219 Z M 8.355469 -15.929688 C 11.140625 -15.929688 13.957031 -14.050781 14.144531 -8.949219 L 2.191406 -8.949219 C 2.378906 -13.675781 5.476562 -15.929688 8.355469 -15.929688 Z M 8.355469 -15.929688 "/></g></g></g><g fill="#361163" fill-opacity="1"><g transform="translate(250.619318, 277.543311)"><g><path d="M 14.867188 -11.925781 C 14.554688 -15.054688 12.550781 -16.933594 9.140625 -16.933594 C 7.199219 -16.933594 5.445312 -16.242188 4.195312 -14.679688 L 3.441406 -12.957031 L 3.441406 -16.492188 L 2.253906 -16.492188 L 2.253906 0 L 3.441406 0 L 3.441406 -9.140625 C 3.441406 -13.863281 6.101562 -15.898438 9.015625 -15.898438 C 11.988281 -15.898438 13.394531 -14.144531 13.675781 -11.578125 C 13.769531 -10.734375 13.800781 -10.015625 13.800781 -8.917969 L 13.800781 0 L 14.992188 0 L 14.992188 -9.203125 C 14.992188 -10.546875 14.960938 -11.078125 14.867188 -11.925781 Z M 14.867188 -11.925781 "/></g></g></g><g fill="#361163" fill-opacity="1"><g transform="translate(267.703137, 277.543311)"><g><path d="M 8.542969 -16.933594 C 4.414062 -16.933594 0.9375 -13.644531 0.9375 -8.230469 C 0.9375 -2.628906 4.195312 0.4375 8.261719 0.4375 C 11.707031 0.4375 14.398438 -1.566406 15.085938 -5.007812 L 13.863281 -5.007812 C 13.269531 -2.128906 11.015625 -0.5625 8.355469 -0.5625 C 5.226562 -0.5625 2.253906 -3.035156 2.253906 -8.417969 C 2.253906 -13.519531 5.507812 -15.960938 8.480469 -15.960938 C 11.546875 -15.960938 13.457031 -14.179688 14.019531 -11.265625 L 15.242188 -11.265625 C 14.742188 -14.648438 12.207031 -16.933594 8.542969 -16.933594 Z M 8.542969 -16.933594 "/></g></g></g><g fill="#361163" fill-opacity="1"><g transform="translate(283.973442, 277.543311)"><g><path d="M 15.367188 -8.699219 C 15.367188 -12.988281 13.082031 -16.933594 8.417969 -16.933594 C 4.226562 -16.933594 0.9375 -13.519531 0.9375 -8.292969 C 0.9375 -2.503906 4.195312 0.4375 8.136719 0.4375 C 11.328125 0.4375 14.210938 -1.410156 15.117188 -5.132812 L 13.894531 -5.132812 C 13.082031 -2.003906 10.703125 -0.5625 8.199219 -0.5625 C 5.320312 -0.5625 2.378906 -2.566406 2.191406 -7.917969 L 15.335938 -7.917969 C 15.367188 -8.324219 15.367188 -8.542969 15.367188 -8.699219 Z M 8.355469 -15.929688 C 11.140625 -15.929688 13.957031 -14.050781 14.144531 -8.949219 L 2.191406 -8.949219 C 2.378906 -13.675781 5.476562 -15.929688 8.355469 -15.929688 Z M 8.355469 -15.929688 "/></g></g></g><g fill="#361163" fill-opacity="1"><g transform="translate(300.494052, 277.543311)"><g/></g></g><g fill="#361163" fill-opacity="1"><g transform="translate(306.501547, 277.543311)"><g><path d="M 16.710938 -1.03125 L 4.226562 -1.03125 L 4.226562 -21.59375 L 3.035156 -21.59375 L 3.035156 0 L 16.710938 0 Z M 16.710938 -1.03125 "/></g></g></g><g fill="#361163" fill-opacity="1"><g transform="translate(323.647943, 277.543311)"><g><path d="M 12.550781 0 L 13.769531 0 C 13.582031 -2.097656 13.488281 -3.316406 13.488281 -5.039062 L 13.488281 -10.421875 C 13.488281 -11.234375 13.488281 -11.769531 13.425781 -12.582031 C 13.175781 -15.335938 11.421875 -16.933594 8.011719 -16.933594 C 4.664062 -16.933594 2.253906 -14.773438 2.035156 -11.832031 L 3.253906 -11.832031 C 3.597656 -14.710938 5.726562 -15.929688 8.011719 -15.929688 C 10.609375 -15.929688 12.050781 -14.679688 12.238281 -12.457031 C 12.300781 -11.769531 12.300781 -11.109375 12.300781 -10.359375 L 12.300781 -9.609375 L 11.234375 -9.609375 C 5.757812 -9.609375 1.378906 -7.886719 1.378906 -4.070312 C 1.378906 -1.09375 3.441406 0.4375 6.542969 0.4375 C 8.605469 0.4375 10.421875 -0.34375 11.546875 -1.941406 L 12.332031 -3.597656 Z M 6.824219 -0.5625 C 4.070312 -0.5625 2.691406 -1.910156 2.691406 -4.132812 C 2.691406 -7.667969 7.542969 -8.917969 12.300781 -8.605469 L 12.300781 -6.480469 C 12.300781 -3.285156 10.109375 -0.5625 6.824219 -0.5625 Z M 6.824219 -0.5625 "/></g></g></g><g fill="#361163" fill-opacity="1"><g transform="translate(339.386326, 277.543311)"><g><path d="M 9.390625 -16.933594 C 7.292969 -16.933594 5.757812 -16.367188 4.414062 -14.867188 L 3.441406 -13.019531 L 3.441406 -23.003906 L 2.253906 -23.003906 L 2.253906 0 L 3.441406 0 L 3.441406 -3.378906 L 4.382812 -1.441406 C 5.601562 -0.125 7.074219 0.4375 8.980469 0.4375 C 13.019531 0.4375 16.617188 -2.503906 16.617188 -8.417969 C 16.617188 -13.363281 13.832031 -16.933594 9.390625 -16.933594 Z M 8.980469 -0.5625 C 6.449219 -0.5625 3.441406 -2.160156 3.441406 -7.261719 L 3.441406 -8.886719 C 3.441406 -14.113281 6.132812 -15.929688 9.265625 -15.929688 C 13.207031 -15.929688 15.304688 -12.425781 15.304688 -8.230469 C 15.304688 -3.597656 12.675781 -0.5625 8.980469 -0.5625 Z M 8.980469 -0.5625 "/></g></g></g></svg>